<?xml version="1.0" encoding="utf-8"?>
<!-- Generator: Adobe Illustrator 20.0.0, SVG Export Plug-In . SVG Version: 6.00 Build 0)  -->
<svg version="1.1" id="Layer_1" xmlns="http://www.w3.org/2000/svg" xmlns:xlink="http://www.w3.org/1999/xlink" x="0px" y="0px"
	 width="340px" height="156px" viewBox="0 0 340 156" style="enable-background:new 0 0 340 156;" xml:space="preserve">
<style type="text/css">
	.st0{fill:#FFFFFF;}
</style>
<g>
	<path class="st0" d="M215.7,109c0-0.3-0.1-0.6-0.5-0.6s-0.6-0.2-0.6-0.6c0-0.6-0.1-0.6-0.6-0.9c0-0.2,0.1-0.4,0.1-0.6
		c-0.2-0.1-0.4-0.1-0.6-0.2c-0.4-0.2-0.5-0.5-0.4-0.9c0.2-0.8-0.1-1.1-0.8-1.3c-0.4-0.1-0.8-0.1-1.2-0.1c-1.6,0-3.2,0.1-4.8,0.1
		c-1.3,0-1.4-0.1-1.6-1.4c-0.1-0.5-0.2-1.1-0.3-1.6c0-0.1-0.1-0.2-0.2-0.4c-0.2,0.1-0.4,0.2-0.6,0.4c-0.2,0.1-0.3,0.3-0.5,0.5
		c-3.5,3.3-7.7,3.9-12.2,1.8c-4-1.9-6.4-5.2-7.5-9.4c-1.1-3.9-0.9-7.8,0.6-11.6c2.1-5.5,6.2-8.4,12-8.7c1.3-0.1,2.6,0,3.8,0.2
		c1.8,0.3,3.3,1.2,4.6,2.5c0.2,0.2,0.4,0.4,0.7,0.8c0.2-0.3,0.3-0.5,0.4-0.7c0.1-0.4,0.2-0.8,0.4-1.3c0.3-0.9,0.4-0.9,1.3-0.9
		c0.7,0,1.5,0.3,2.2-0.1c0.1-0.1,0.3,0,0.4,0c0.6,0.6,1.4,0.4,2.1,0.4c0.5,0,0.9,0.3,1.4,0.4c0.4,0.1,0.7,0.3,1.1,0.5
		c0.1-0.5-0.1-0.8-0.3-1.1c-0.3-0.5-0.7-0.9-1.1-1.3c-0.3-0.4-0.7-0.8-1.1-1.2c-0.6-0.8-1.3-1.6-2.1-2.3c-1.1-1-2.1-2.2-2.2-3.8
		c0-0.5,0-0.7,0.6-0.8c0.1,0.6,0.7,1,0.5,1.5c0.6,0.5,1.1,0.9,1.7,1.4c0,0.2-0.1,0.3-0.1,0.5c0.1,0,0.1,0.1,0.2,0.1
		c1,0,1.6,0.7,2.2,1.3c0.3,0.3,0.6,0.7,0.9,1c0.2,0.2,0.4,0.4,0.5,0.6c0.1,0.6,0.5,1,1,1.3c0.9,0.7,1.7,1.4,2.5,2.2
		c0.4,0.3,0.8,0.5,1.3,0.5c0.7,0,1.3,0.1,1.9,0.6c0.3,0.3,0.8,0.4,1.1,0.6c0.4-1,0.3-0.8-0.4-1.5c-1-1-2.4-1.4-3.5-2.1
		c-0.8-0.5-1-1.2-1.4-1.9c-0.2-0.4,0.1-0.8,0.5-1c0.7-0.3,1.5-0.5,2.2,0c1.3,0.8,2.6,1.5,3.7,2.6c0.6,0.5,1.3,0.9,1.9,1.4
		c0.8,0.6,1.6,1.2,2.4,1.8c0.2,0.1,0.3,0.5,0.2,0.7c-0.2,0.7-0.5,1.4-0.8,2.1c-0.2,0.5-0.7,0.6-1.2,0.4c-1-0.4-2-0.4-2.8-1.2
		c-0.5-0.4-1.1,0-1.7-0.1c0,0-0.2,0.4-0.1,0.6c0,0.1,0.2,0.2,0.4,0.3c0.3,0.3,0.8,0.6,1,1c0.4,0.7,1,1,1.7,0.9c0.6,0,1.2,0,1.9,0.1
		c0,0,0.1,0.1,0,0.2c-0.8,1.4-0.9,3-1.6,4.5c-0.1,0.2-0.2,0.5-0.3,0.7c-1-0.6-1.9-1.2-2.8-1.8c-1.1-0.8-1.2-0.8-2.5,0
		c0.8,0.6,1.5,1.2,2.2,1.7c0.6,0.4,1.3,0.8,1.9,1.3c0.3,0.3,0.6,0.6,0.4,1.1c-0.4,1-0.7,2-1.1,2.9c-0.1,0.3-0.3,0.5-0.5,0.7
		c-0.8-0.1-1.4-0.5-1.7-1.2c-0.1-0.1-0.2-0.3-0.2-0.4c0-1-0.6-1.3-1.5-1.3c-0.1,0-0.1-0.1-0.2-0.1c0-0.2-0.1-0.5-0.1-0.8
		c-0.6-0.3-1.2-0.5-1.7-0.8s-0.6-1.1-1.5-1c0,0.2-0.1,0.4-0.1,0.6c0.1,2.8,0.1,5.6,0.2,8.5c0,0.5,0.2,0.7,0.7,1
		c1.3,0.8,2.6,1.7,3.9,2.5c-0.1,0.8-0.4,1.4-0.8,2.2c-0.3-0.4-0.6-0.6-0.8-0.9c-0.5,0.2-0.3,0.6-0.1,0.7c0.8,0.4,0.8,0.9,0.6,1.7
		c-0.2,0.6-0.1,0.8,0.6,1c0.7,0.2,1.4,0.4,2,0.6c0.3,0.1,0.6,0.4,0.9,0.7c0.5,0.5,1,1.1,1.5,1.6c0.7,0.8,1.5,1.5,2.1,2.4
		c0.2,0.3,0.4,0.5,0.8,0.5c0.3,0,0.5,0.1,0.8,0.1c0.1,0,0.3,0.1,0.4,0c0.5-0.5,1.1-0.3,1.7-0.3c0.5,0,1.2,0.4,1.6-0.3
		c0-0.5-0.4-0.7-0.7-0.9c-0.5-0.3-1-0.5-1.5-0.8c-0.3-0.1-0.5-0.4-0.8-0.5c-0.7-0.2-1-0.5-0.7-1.3c-1.3,0.4-2-0.5-2.7-1.2
		c1.4-0.3,2.8-0.7,4.1,0.2c0.9,0.6,1.9,1,2.8,1.5c0.3,0.2,0.7,0.4,1,0.6c1.3,1,2.8,1.6,4.5,1.8c0.9,0.1,0.9,0.1,0.8,1
		c0,0.1,0,0.3,0,0.4s0.1,0.1,0.2,0.2c0.5-0.6,0.3-1.3,0.7-1.9c-0.2-0.2-0.6-0.4-0.6-0.6c-0.1-0.2,0.2-0.5,0.3-0.8
		c-0.1-0.1-0.3-0.3-0.5-0.3c-1.4-0.2-2.3-1.4-3.4-2.1c-0.2-0.1-0.4-0.4-0.4-0.7c0-0.5-0.3-0.8-0.8-0.9c-0.5-0.2-0.9-0.5-1.2-1
		c-0.1-0.2-0.4-0.4-0.7-0.6c0.2-0.7,0.4-1.4,0.6-2.1c0.1-0.2,0.2-0.4,0.3-0.7c0.9,0.8,1.7,1.5,2.4,2.3c1,0.9,1.9,1.9,2.8,2.9
		c1.1,1.1,2.2,2.2,3.4,3.2c0.3,0.3,0.8,0.5,1.2,0.7c0.9,0.5,0.9,0.5,1.5,1.3c0-0.4,0-0.6,0-0.8c0.5-0.3,0.9-0.1,1.1,0.2
		c0.3,0.5,0.7,0.5,1.2,0.4c-0.2,0.9-0.3,0.9-1.5,0.7c-0.2,0.4,0,0.8,0.3,1.1c0.3,0.2,0.5,0.4,0.8,0.6c1.1,0.9,1.2,1.2,1.3,2.8
		c-1.2,0.3-2.3,0.6-3.4,0.9c-0.5-0.1-1.1-0.2-1.6-0.4c-0.4-0.2-0.8-0.4-1.1-0.7c-0.3-0.3-0.6-0.4-0.9-0.5c-0.9-0.4-1.7-0.8-2.5-1.3
		c-0.2-0.1-0.2-0.4-0.2-0.7c-0.3,0.1-0.5,0.2-0.8,0.3c-0.2-0.2-0.3-0.4-0.4-0.5c-0.6,0-1.1,0-1.6,0c-0.3,0-0.6,0-0.8-0.1
		c-0.6-0.5-1.2-0.4-1.9-0.4c-0.6,0-1.1-0.1-1.7-0.2c-0.5-0.1-0.9,0.1-1.2,0.5c-0.2,0.3,0,1,0.3,1.3c1,0.9,2,1.8,2.9,2.8
		c0.8,0.8,1.7,1.5,2.3,2.5c0.4,0.6,0.9,1.1,1.4,1.7c0.8,0.8,1.5,1.6,2.4,2.4c0.7,0.6,1.4,1.1,2.1,1.6c0.3,0.2,0.5,0.4,0.6,0.7
		c0.1,0.4,0.4,0.7,0.6,1c1,1.2,2.2,2.2,3.1,3.4c1.2,1.6,2.8,2.6,4,4.2c0.1,0.2,0.3,0.5,0.3,0.7c0,0.3-0.3,0.5-0.6,0.5
		c-0.9,0.1-1.7,0-2.3-0.7c-0.2-0.3-0.6-0.4-0.9-0.7c-0.4-0.3-0.7-0.7-1.2-1.1c0.3-0.1,0.5-0.2,0.7-0.3c0-0.4-0.2-0.7-0.7-0.7
		c-0.4,0-0.7-0.2-0.9-0.5c-0.5-0.7-1.1-1.3-1.7-2c0,0-0.1-0.1-0.1-0.2c-0.2-0.9-0.9-1.4-1.8-1.6c0.1-0.8-0.2-1.2-1-1.4
		c-0.2,0-0.4-0.1-0.4-0.3c-0.3-0.8-1.1-1-1.6-1.5s-1.1-1-1.3-1.7c-0.2-0.5-0.8-0.9-1.6-1.1c-0.2-0.6-0.4-1.2-0.7-1.8
		c-0.8-0.2-1.4-0.7-1.9-1.3c-0.4-0.5-0.7-1-1.4-1.1c-0.6-0.2-0.5-0.7-0.6-1.3c-1-0.1-1.6-0.6-1.5-1.8c-0.9,0.3-1.5-0.1-1.8-0.8
		c-0.3-0.5-0.8-0.4-1.2-0.4c-0.6,0-1.1,0.2-1.6-0.2c-0.1-0.1-0.5,0.1-0.7,0.2c-0.4,0.2-0.8,0.4-1.2-0.1c-0.1-0.1-0.5-0.2-0.7-0.1
		c-0.3,0.2-0.3,0.5-0.1,0.8c0.5,0.6,1,1.2,1.5,1.9c0.5,0.7,1,1.4,1.6,2s1,1.3,1.7,1.8c0.6,0.4,1.1,1,1.4,1.6c0.5,1,1.3,1.7,2.2,2.3
		c0.1,0.1,0.3,0.2,0.4,0.3c0.5,1,1.1,1.7,1.8,2.3c0.7,0.6,1.3,1.2,2,1.8c1.2,1,2.3,2,3.3,3.2c1,1.1,2.3,1.9,3.4,2.8
		c0.7,0.5,1.4,1,2.1,1.6c0.2,0.1,0.3,0.3,0.6,0.7c-1,0.1-1.8,0.2-2.6,0.4c-0.4-0.4-1-0.6-0.7-1.5c-0.3,0.2-0.5,0.2-0.7,0.4
		c-0.5-1.1-1.5-1.7-2.7-2c-0.5-0.1-0.9-0.5-0.8-1.1c0.1-0.4-0.1-0.6-0.4-0.9c-0.1-0.1-0.3-0.1-0.3-0.3c-0.2-0.7-0.7-0.7-1.3-0.6
		c0-0.2,0-0.5-0.1-0.6c-0.5-0.1-0.7-0.4-0.6-0.9c0-0.1-0.4-0.3-0.6-0.3c-0.2,0-0.4,0.1-0.8,0.3c0.1-0.4,0.2-0.7,0.3-1
		c-0.6,0.1-1.2,0-1.5-0.5c-0.2-0.3-0.3-0.7-0.5-1.1c-0.1-0.2-0.2-0.4-0.4-0.6c-0.3-0.4-0.7-0.7-1-1.1c-0.3-0.3-0.6-0.5-0.9-0.8
		c-0.2-0.2-0.5-0.3-0.5-0.5c-0.2-0.6-0.5-0.7-1.1-0.7c-0.1,0-0.2,0-0.5-0.1c0.5-0.6,0.3-1.2,0-1.8c-0.2,0.1-0.5,0.2-0.8,0.3
		c-0.2-0.2-0.3-0.4-0.5-0.7c0.1-0.2,0.2-0.4,0.4-0.6c-0.4-0.2-0.7-0.5-1-0.7c-0.1-0.1-0.3-0.2-0.4-0.3c-0.4-0.6-0.9-1.1-1.7-1.2
		c0.1-0.4,0.2-0.7,0.3-1c-0.5-0.4-1.4,0.1-1.6-0.9c0.2-0.1,0.3-0.1,0.5-0.2c0.1-0.3-0.6-1.4-1-1.5c-0.8-0.2-1.7-0.4-2.5-0.6
		c-0.3-0.1-0.6-0.2-0.9-0.3c-0.5,0.5-1,0.7-1.7,0.2c-0.1-0.1-0.3-0.1-0.4,0c-0.5,0.4-0.9-0.3-1.4-0.3c-0.1,0-0.3-0.4-0.3-0.6
		c0.1-0.3,0.4-0.5,0.7-0.9c-0.1,0.8,0.1,1,0.6,0.9c0.2-0.1,0.4-0.2,0.7-0.2c0.1,0,0.2,0.1,0.3,0.1c0.2-0.2,0.4-0.6,0.6-0.6
		c0.6,0,0.8-0.3,0.8-0.8C215.2,109,215.5,109,215.7,109c0,0.3-0.1,0.7-0.2,1.1C216.2,109.5,216.2,109.5,215.7,109z M204.8,88.7
		c0-0.2,0-0.5,0-0.7c-0.1-2.3-1.6-4.2-3.7-5c-2.3-0.8-4.9-0.2-6.5,1.5c-1,1.1-1.4,2.4-1.4,3.9c-0.1,2.9,2,5.6,4.7,6.1
		C201.8,95.1,204.8,92.5,204.8,88.7z M221.3,110.7c0-0.1,0.1-0.2,0.1-0.3c0.1-0.5,0.3-0.6,0.8-0.5c0.2,0.1,0.4-0.1,0.6-0.2
		c0.1,0,0.1-0.2,0.1-0.3c-0.3-0.1-0.5-0.2-0.8-0.3c0.2-0.2,0.3-0.2,0.4-0.3c0.1-0.1,0.2-0.2,0.3-0.3c-0.4-0.2-0.9-0.3-1.1-0.6
		c-1.1-1.3-2.5-2.4-3.5-3.8c-0.2-0.2-0.5-0.4-0.7-0.4c-0.5-0.2-1-0.5-1.4-1c-0.2-0.2-0.4-0.4-0.6-0.6c-0.3,0.6-0.6,1.2-0.9,1.7
		c0.1,0.4,0.2,0.8,0.4,1.2c0.2,0.2,0.4,0.4,0.6,0.7c0.1,0.2,0.3,0.4,0.4,0.6c0.4,0.5,1,1,1.2,1.6c0.4,1.3,1.4,1.3,2.4,1.5
		C220.3,109.6,221.1,109.6,221.3,110.7z M215.8,76.7c-0.1,0.4-0.2,0.7-0.3,1c-0.1,0.7-0.2,1.3-0.3,2c-0.2,0.9-0.1,1.7,0.7,2.2
		c0.2,0.1,0.3,0.3,0.4,0.4c0.1,0.1,0.3,0.3,0.5,0.3c0.6,0,1.3,0,1.8-0.4c-0.5-0.5-0.9-1-1.4-1.5c-1-1.1-1.2-1.6-0.4-2.8
		c0.1-0.2,0.2-0.3,0.4-0.5c-0.4-0.2-0.7-0.4-1-0.6C216.2,76.8,216.1,76.8,215.8,76.7z M240.1,110.2c0.5,0.6,0.5,0.6,1.1,0.4
		C240.8,110.4,240.5,110.3,240.1,110.2z M215.7,74.8c0.1-0.1,0.2-0.2,0.3-0.3c-0.1-0.1-0.2-0.2-0.4-0.2c0,0-0.2,0.2-0.2,0.3
		C215.4,74.6,215.5,74.6,215.7,74.8z M216.9,99.4c-0.1,0-0.2,0-0.2,0.1c0.1,0.2,0.1,0.3,0.2,0.5c0.1,0,0.1,0,0.2-0.1
		C217,99.7,216.9,99.6,216.9,99.4z M219.6,76.7c-0.1,0.1-0.2,0.2-0.2,0.3c0.1,0.1,0.2,0.2,0.3,0.2c0,0,0.2-0.1,0.2-0.2
		C219.8,76.9,219.7,76.8,219.6,76.7z M216.7,109.6c-0.1,0.1-0.2,0.1-0.2,0.2s0.1,0.1,0.1,0.2c0.1-0.1,0.2-0.1,0.3-0.2
		C216.9,109.7,216.8,109.7,216.7,109.6z"/>
	<path class="st0" d="M257.1,65.2c0.2,0.3,0.3,0.9,0.6,1c0.8,0.3,0.7,1,0.7,1.6c0,0.2,0,0.3-0.1,0.7c0.3-0.3,0.4-0.5,0.6-0.6
		c0.4,0.3,0.2,0.6,0,1c0.9-0.2,1.4,0.1,1.8,0.9c0.3,0.6,0.2,1.3,0.8,1.8c0.2,0.2,0.3,0.4,0.5,0.7c-0.2,0.1-0.3,0.3-0.6,0.5
		c0.1,0.1,0.2,0.1,0.3,0.1c0.8,0.2,1.1,0.5,1.3,0.8c0.2,0.4,0.4,0.9,0.7,1.5c0.8,0.2,1.8-0.1,2.8-0.2c1.9-0.3,3.8-0.7,5.7-1
		c0.2,0,0.4-0.1,0.6-0.1c0.7-0.1,0.9,0,1,0.7c0.1,0.6,0.2,1.1,0.2,1.7c0.1,0.4,0.1,0.8,0.2,1.3c0.4-0.2,0.6-0.4,0.9-0.6
		c1.8-1.1,3.5-2.1,5.6-2.4c0.8-0.1,1.7-0.2,2.5-0.1c0.8,0,1,0.3,1,1.2c0,0.6-0.1,1.1-0.2,1.7c-0.3,2.3-0.2,4.6-0.2,6.8
		c0,1.7-0.2,1.9-1.9,1.8c-1.4,0-2.8-0.1-4.2,0c-2,0.1-2.8,1-2.8,3c-0.1,2.4,0,4.8,0,7.1c0,2.1,0.2,4.2,0.2,6.3
		c0,1.1-0.2,1.4-1.3,1.4c-1.2,0.1-2.5,0-3.7,0c-0.3,0.5-0.5,0.9-0.8,1.2l0,0c-0.6-0.2-0.2-0.7-0.2-1.1c-0.8,0-1.6-0.1-2.4-0.1
		c-1.6,0.1-2.9-0.5-4.2-1.5c-0.5-0.4-1.2-0.7-1.8-1c-0.4-0.2-0.7-0.4-0.8-0.8c-0.1-0.4-0.3-0.8-0.4-1.1c-0.8-2.2-1.6-4.4-2.4-6.6
		c-0.1-0.3-0.2-0.6-0.3-0.9c0.1,0,0.1-0.1,0.2-0.1c1.1,0.9,2.3,1.8,3.4,2.7c1.1,0.9,2.3,1.9,3.5,2.9c0.1-1.4,0.2-2.7,0.1-4
		c-0.3,0-0.5-0.1-0.7,0c-1,0.3-1.9,0-2.8-0.6c-0.8,0.1-1.2-0.6-1.8-0.9c-0.8-0.5-1.6-1-2.3-1.6c-0.2-0.2-0.4-0.5-0.5-0.8
		c-0.8-2-1.6-4.1-2.4-6.1c-0.1-0.2-0.1-0.4-0.1-0.9c0.6,0.4,1.1,0.6,1.5,1c1.4,1.4,3.1,2.5,4.6,3.7c0.2,0.2,0.5,0.3,0.8,0.3
		c0.4,0.1,0.7,0.1,1.1,0.1c0,0.2,0.1,0.4,0.1,0.6c0.7,0.2,1.6,0,1.9,1c0.5-0.1,0.6-0.4,0.6-0.8c-0.1-1.1-0.1-2.3-0.2-3.4
		c-0.1-0.4-0.4-0.8-0.7-1c-1.1-0.7-2.3-1.2-3.6-1.5c-0.5-0.1-1-0.3-1.5-0.4c-0.3-0.1-0.6-0.1-0.8,0c-0.5,0.2-0.8,0.1-1.2-0.2
		c-0.3-0.3-0.8-0.2-1.3-0.4c-0.2,0.2-0.3,0.3-0.4,0.5c-0.9,0.2-1.8-0.8-2.1-2.2c0.4,0,0.8,0,1.3-0.1c-0.4-0.6-1-0.8-1.5-1
		c-0.2-0.1-0.5-0.2-0.5-0.4c-0.4-0.8-0.7-1.6-1.1-2.7c1.1,0.5,2.1,0.9,3,1.3c0-0.1,0.1-0.1,0.1-0.2c-0.5-0.3-0.6-0.9-1.2-1.2
		c-0.4-0.2-0.7-0.7-1.1-1c-0.3-0.3-0.5-0.7-1-0.6c-0.1,0-0.3-0.2-0.3-0.3c-1-1.9-1.7-3.9-2.5-6.1c0.5,0.2,0.9,0.4,1.2,0.5
		c-0.2-0.6-0.4-0.9-1.1-1.5c-0.2-0.1-0.4-0.2-0.5-0.4c-0.7-1.2-1.3-2.5-1.8-3.8c0.1,0,0.1-0.1,0.2-0.1c0.2,0.2,0.4,0.4,0.7,0.5
		c1.6,1.4,3.2,2.7,4.8,4.1c0.4,0.4,0.9,0.7,1.3,1.1c1,0.8,2.1,1.5,2.9,2.6c0.3,0.4,0.7,0.8,1.2,1.1c0.6,0.4,0.9,1,1.2,1.6
		c0.2,0.5,0.1,0.7-0.4,0.9c-0.5,0.2-1.1,0.4-1.7,0.6c0.2,0.2,0.3,0.4,0.4,0.5c1.6,1.3,3.2,2.5,4.8,3.8c0.3,0.2,0.5,0.4,0.7,0.7
		c0.4,0.9,1.3,1,2.1,1.3c0.1,0,0.2,0,0.3-0.1c0.2-1.1-0.6-2-0.3-3.1c-0.3,0-0.5-0.1-0.7-0.1c-0.4-0.1-0.6-0.3-0.4-0.7
		c0.1-0.2,0.1-0.6,0-0.7c-0.6-0.9-1.2-1.9-1.3-3c0-0.1-0.2-0.2-0.3-0.3c-0.2,0.1-0.4,0.2-0.6,0.3c-0.5-0.4,0.1-0.7,0-1.1
		c-0.3-0.3-0.5-0.5-0.8-0.8c-0.6-0.7-0.6-0.7,0.3-1.3c-0.3-0.1-0.5-0.2-0.7-0.2c-0.4-0.1-0.6-0.3-0.8-0.6c-0.4-0.7-0.8-1.4-1-2.1
		c-0.2-0.6-0.7-1.1-1-1.7c-0.3-0.4-0.5-0.8-0.8-1.1c-0.1-0.2-0.4-0.5-0.3-0.6c0.3-0.5-0.3-0.5-0.4-0.9c0.4-0.4,0.8-0.8,1.2-1.3
		c0.6,0.5,0.5,1.2,0.6,1.8c0.2,0,0.4,0,0.7,0.1C257.2,64.1,258,64.7,257.1,65.2c-0.2-0.2-0.3-0.5-0.7-0.2
		C256.6,65.1,256.9,65.2,257.1,65.2z M259.3,81c-0.3,0-0.6,0.1-0.9,0.1c0.1,0.6,0.2,0.9,0.7,0.7C259.5,81.7,259.6,81.5,259.3,81z
		 M260.7,98.1c-0.1-0.1-0.2-0.2-0.2-0.2c-0.1,0.1-0.2,0.2-0.2,0.2c0.1,0.1,0.2,0.1,0.3,0.1C260.5,98.3,260.6,98.1,260.7,98.1z"/>
	<path class="st0" d="M140.8,77.9c0.4-0.3,0.7-0.5,1-0.7c1.1-0.8,2.2-1.6,3.4-2.3c2.7-1.5,5.5-1.8,8.5-1.1c2.5,0.6,4.4,2,5.3,4.6
		c0.2-0.2,0.4-0.4,0.6-0.6c2-2.2,4.5-3.6,7.4-4.2c2.4-0.4,4.7-0.2,6.9,0.8c2.9,1.3,4.4,3.6,4.4,6.8c0,2.6-0.2,5.3-0.1,8
		c0,4.2,0.1,8.4,0.2,12.6c0,1.9-0.1,2.1-2.1,2.1c-2.2,0-4.4,0-6.6,0c-0.3,0-0.5,0-0.8,0c-1.2-0.1-1.6-0.4-1.6-1.6
		c0-2.2,0.1-4.4,0.1-6.7c0-3.1,0-6.1-0.1-9.2c0-0.3,0-0.5-0.1-0.8c-0.5-2.4-2.5-3.5-4.7-2.5c-1.8,0.8-3,2.2-3,4.3
		c0.1,4.8,0.1,9.6,0.1,14.4c0,0.2,0,0.5,0,0.7c-0.1,0.9-0.3,1.1-1.2,1.1c-2.9,0-5.8,0-8.7,0c-0.9,0-1.2-0.2-1.2-1.1s0-1.8,0-2.7
		c0-4.3,0-8.6,0-12.9c0-0.7-0.1-1.3-0.3-2c-0.5-1.6-1.7-2.4-3.3-2.2c-1.5,0.2-2.7,0.9-3.7,2c-0.5,0.5-0.6,1.1-0.6,1.8c0,3,0,6,0,9
		c0,2.3,0,4.7,0,7.1c0,1-0.1,1.2-1.1,1.3c-3,0.2-5.9,0.2-8.9-0.1c-0.7-0.1-0.8-0.2-0.8-0.9c0-0.8,0-1.7,0-2.5c0-4.6,0.1-9.1,0-13.7
		c-0.1-3.1-0.4-6.2-0.7-9.2c-0.1-1.6-0.1-1.7,1.5-2c0.7-0.1,1.5-0.2,2.2-0.3c1.5-0.1,2.9-0.4,4.3-0.9c0.6-0.2,1.2-0.3,1.8-0.4
		c0.8-0.1,1,0,1.1,0.8s0.1,1.6,0.2,2.4C140.7,77.2,140.8,77.4,140.8,77.9z"/>
	<path class="st0" d="M68.4,103.9c-1.6-0.1-3.2-0.1-4.7-0.2c-1.6-0.1-2-0.4-2.3-2c-0.3-1.1-0.6-2.3-0.9-3.4
		c-0.2-0.6-0.5-0.9-1.2-0.9c-3.9,0-7.8,0-11.7,0c-1,0-1.5,0.4-1.7,1.3c-0.2,0.7-0.4,1.4-0.6,2c-0.1,0.3-0.2,0.7-0.3,1
		c-0.5,1.7-0.8,2-2.6,2c-2.6,0-5.3,0-8,0c-0.5,0-1.1-0.1-1.6-0.2c-0.6-0.2-0.8-0.4-0.6-1c0.2-0.8,0.5-1.5,0.7-2.3
		c3.3-9.2,6.7-18.4,10-27.5c1.4-3.7,2.7-7.4,4-11.2c0.4-1.1,0.5-1.2,1.7-1.1c1.4,0.1,2.7,0.2,4.1,0.2c1.4,0,2.8,0,4.1-0.2
		c1.1-0.1,1.7,0.4,2.1,1.3c0.6,1.4,1.2,2.8,1.7,4.2C65,77.4,69.5,89,73.9,100.5c0.3,0.7,0.5,1.3,0.7,2c0.2,0.6,0,0.9-0.6,1.1
		c-0.4,0.1-0.8,0.2-1.2,0.2c-1.5,0-3,0-4.5,0C68.4,103.8,68.4,103.9,68.4,103.9z M53.3,75.5c-0.1,0.1-0.2,0.2-0.2,0.3
		c-1.1,3.4-2.3,6.7-3.4,10.1c-0.3,0.8-0.1,1.1,0.8,1.1c1.7,0.1,3.3,0.1,5,0.1c0.2,0,0.4-0.1,0.6-0.1c0.4-0.1,0.6-0.4,0.5-0.7
		c0-0.2,0-0.4-0.1-0.6c-0.7-3.3-1.7-6.5-2.9-9.6C53.5,75.9,53.4,75.7,53.3,75.5z"/>
	<path class="st0" d="M88.8,77.7c1.1-0.7,2.2-1.3,3.3-2c1.4-0.8,2.8-1.6,4.4-1.9c2.7-0.5,5.4-0.2,7.8,1.2c2.3,1.3,3.4,3.3,3.4,6
		c0,3,0,6,0,9.1c0,3.8,0.1,7.7,0.1,11.5c0,2-0.1,2.1-2.1,2.2c-2.1,0-4.2,0-6.3,0c-0.3,0-0.7,0-1,0c-1.3-0.1-1.6-0.4-1.6-1.7
		c0-2.4,0.1-4.9,0.2-7.4c0-2.6,0-5.2-0.1-7.8c0-0.3-0.1-0.7-0.1-1c-0.3-2.2-2.2-3.4-4.3-2.8c-0.7,0.2-1.3,0.5-1.9,0.9
		c-1.1,0.7-1.7,1.6-1.7,3.1c0.1,4.9,0,9.8,0,14.7c0,0.3,0,0.5,0,0.8c-0.1,0.7-0.4,1-1.1,1.1c-0.3,0-0.5,0-0.8,0c-2.2,0-4.5,0-6.8,0
		c-0.3,0-0.5,0-0.8,0c-1.2-0.1-1.5-0.4-1.5-1.7c0-5.4,0-10.8,0-16.2c0-3.1-0.3-6.2-1.1-9.2c-0.2-0.8,0.1-1.3,1-1.4
		c3.1-0.4,6.1-0.9,9.1-1.4c0.3,0,0.6-0.1,0.9-0.1C88.6,75,88.1,76.5,88.8,77.7z"/>
	<path class="st0" d="M289,91.9c0-2,0-4,0-6c0-1.3-0.4-1.7-1.7-1.7c-1.7,0-1.9-0.2-1.8-1.9c0.1-1.4,0-2.8,0-4.2c0-0.4,0-0.7,0-1.1
		c0-0.8,0.1-0.9,0.9-1.1c0.4-0.1,0.8-0.1,1.2-0.1c0.8-0.1,1.1-0.3,1.1-1.1c0-2.2,0-4.4,0-6.6c0-0.9,0-1.8,0.1-2.7
		c0.1-1,0.4-1.2,1.4-1c2,0.3,3.9,0.7,5.9,1c0.8,0.1,1.7,0.2,2.5,0.3c0.9,0.1,1,0.3,1,1.1c-0.1,2-0.2,4.1-0.3,6.1
		c-0.1,2,0.1,2.2,2.1,2.1c1.6-0.1,3.2-0.1,4.7-0.2c1,0,1.2,0.1,1.1,1.1c-0.3,2.5-0.2,5-0.2,7.5c0,0.8-0.2,1-0.9,1
		c-1.7,0-3.4,0-5-0.1c-1.7,0-1.7,0-1.7,1.7c0,1.9,0,3.9,0.2,5.8c0.1,1.8,1.1,2.7,3,2.7c0.9,0,1.8-0.2,2.7-0.3
		c0.6-0.1,1.2-0.3,1.8-0.3c0.8-0.1,1,0.1,1,1c0,0.7-0.1,1.4-0.2,2.1c-0.1,1-0.2,2.1-0.3,3.1c0,0.8-0.4,1.3-1.1,1.7
		c-2.6,1.4-5.3,2.1-8.3,2.2c-1.6,0.1-3.3-0.1-4.9-0.6c-2.9-0.9-4.4-2.9-4.5-5.9c0-1.9,0-3.8,0-5.7C288.8,91.9,288.9,91.9,289,91.9z"
		/>
	<path class="st0" d="M113.6,91.1c-0.2-4.4-0.4-8.7-0.6-13.1c0-0.8-0.2-1.6-0.2-2.4c-0.1-0.8,0.1-1,0.9-1c0.6,0,1.2,0,1.8,0.1
		c2.3,0.3,4.6,0.3,6.9,0c0.5-0.1,1.1-0.1,1.6-0.1c0.7,0,0.8,0.2,0.8,0.9c-0.1,1.1-0.2,2.1-0.3,3.2c-0.4,4.3-0.4,8.7-0.4,13
		c0,3.5,0.1,6.9,0.2,10.4c0,1.3-0.2,1.5-1.4,1.6c-2.7,0-5.4,0-8.1,0c-0.1,0-0.3,0-0.4,0c-1-0.2-1.2-0.3-1.2-1.4
		c0.1-3.7,0.1-7.5,0.2-11.2C113.5,91.1,113.6,91.1,113.6,91.1z"/>
	<path class="st0" d="M245.2,107.8c-0.6-0.2-0.1-0.6-0.2-0.9c-1.6-1.2-3.3-2.5-4.9-3.7c-1-0.8-1.9-1.6-2.9-2.3
		c-0.3-0.2-0.7-0.4-1-0.6c-0.4-0.3-0.8-0.5-1.2-0.8c-0.7-0.5-1.4-1-2.3-1.7c0.4-0.1,0.6-0.2,0.8-0.2c2.8,0,5.6,0,8.5,0
		c1.1,0,2.3,0,3.4,0c0.6,0,0.9,0.3,1.1,0.8c0.3,0.7,0.6,1.5,0.6,2.5c-1.5-0.9-2.7-2.2-4.4-2.9c0.3,0.9,0.8,1.3,1.3,1.8
		c1.1,0.9,2.2,1.7,3.3,2.6c0.2,0.2,0.3,0.4,0.5,0.6s0.4,0.5,0.6,0.6c1.2,0.5,2,1.4,2.8,2.2c0.4,0.4,0.9,0.7,1.5,0.7
		c0.3,0,0.5,0.1,0.8,0.1c0.4,0,0.8,0,1.2,0c-0.4-1.5-1.9-1.5-2.7-2.5c0.3-0.1,0.4-0.1,0.6-0.1c1.3,0,2.6,0.1,3.9,0
		c1.1,0,2.1-0.1,3.2-0.2c0.4-0.1,0.8,0,1.1,0.3c0.1,0.1,0.2,0.1,0.3,0.2c0.6,0.7,1.3,1.1,2.2,1.2c0.1,0.3,0.2,0.5,0.4,0.9
		c0.3-0.3,0.5-0.5,0.7-0.6s0.4-0.2,0.6-0.3c0.1,0,0.2,0.2,0.2,0.3c-0.1,0.2-0.2,0.5-0.3,0.7c-0.1,0.1-0.4,0.1-0.6,0.2
		c-0.2,0-0.3,0-0.5,0c0.7,0.7,1.4,1.4,2.1,2.2c0.7,0.8,0.3,1.7-0.7,2.1c-0.2,0.1-0.5,0.2-0.7,0.3c-0.2,0.1-0.6,0.2-0.8,0.1
		c-0.7-0.3-1.4-0.6-2-0.9c-1-0.5-1.8-1.4-3-1.6c-1.3-1.2-2.8-0.6-4.3-0.6c1.5,1.9,3.7,3.1,5.1,4.9c0,1-0.7,1.4-1.5,1.6
		c-0.3,0.1-0.8,0.1-0.7,0.5c0,0.3,0.3,0.6,0.5,0.9c0.7,1,1.9,1.4,2.5,2.6c0.1,0.1,0.2,0.3,0.3,0.4c1.1,0.9,2.3,1.8,3.4,2.7
		c0.4,0.3,0.7,0.6,1.1,0.9s0.9,0.5,0.9,1.1c0,0.1,0.1,0.2,0.2,0.2c0.8,0.6,1.6,1.2,2.3,1.9c0.6,0.5,1.2,1,1.7,1.6
		c0.8,1,1.8,1.7,2.9,2.7c-0.2,0.7,0.5,0.9,1.1,1.1c0.5,0.2,1,0.5,1.3,1s0.3,0.9-0.1,1.3c-0.2,0.2-0.3,0.3-0.4,0.5
		c-0.4-0.2-0.7-0.5-1.1-0.7c-0.1,0-0.2-0.1-0.2-0.1c-0.1-1.1-1.5-1-1.9-2c-0.1-0.4-0.8-0.8-1.3-1.1c-1-0.6-1.5-1.3-1.7-2.4
		c-0.6,0.1-1.1-0.1-1.5-0.6c-0.4-0.4-1-0.5-1.2-1.1c0-0.2-0.4-0.3-0.6-0.3c-1.2-0.2-1.2-0.2-1.1-1.6c-0.5-0.2-1.1-0.4-1.7-0.6
		c0.1-0.7-0.4-1-0.9-1.3c-0.3-0.2-0.6-0.4-0.7-0.8c-0.2-0.5-0.3-1-1-1.2c-0.4-0.1-0.5-0.8-0.8-1.2c-0.9,0.1-0.9,0.1-1.2-0.7
		c0-0.1-0.1-0.2-0.2-0.3c-0.7-0.5-1.3-1.2-2.2-1.5c-0.2-0.1-0.4-0.3-0.4-0.5c-0.1-0.6-0.5-0.9-0.9-1.3c-0.6-0.6-1.2-1-2-1.2
		c0.2-0.9-0.5-1.2-0.9-1.6s-1-0.7-1.4-1.2c-0.7-0.8-1.5-1.3-2.5-1.7c-0.3-0.1-0.6,0-1-0.1C246.3,108.7,246,108,245.2,107.8
		c0.2-0.1,0.4-0.1,0.9-0.2C245.4,107.4,245.4,107.4,245.2,107.8z M255.8,107.4c0-0.1,0.1-0.2,0.1-0.3c-0.3-0.1-0.6-0.4-1.2,0
		C255.1,107.2,255.4,107.3,255.8,107.4z M266.5,125c-0.1-0.1-0.2-0.2-0.3-0.2c-0.1,0-0.1,0.1-0.2,0.1c0.1,0.1,0.2,0.2,0.3,0.2
		C266.3,125.2,266.4,125.1,266.5,125z"/>
	<path class="st0" d="M119.1,72.5c-1.1,0-2.1-0.2-3.1-0.7c-3.6-1.7-4.1-6.5-0.9-8.8c2.5-1.8,6.2-1.6,8.4,0.5c1.8,1.8,2,5,0.5,7
		c-0.7,0.9-1.7,1.4-2.8,1.7C120.5,72.4,119.8,72.4,119.1,72.5z"/>
	<path class="st0" d="M238,60.5c-1.7,0.2-3.2-0.5-4.8,0.1c-0.7-0.6-1.7-0.8-2.2-1.7c0-0.1-0.2-0.2-0.3-0.2c-1.2-0.2-1.6-1.2-2.3-2
		c-0.2-0.2-0.3-0.5-0.4-0.5c-1.1-0.3-1.9-1.3-2.8-1.9c-0.2-0.2-0.4-0.3-0.7-0.5c-0.7-0.4-1.3-0.8-1.6-1.6c-0.3,0-0.5,0.1-0.7,0.1
		c-0.1,0-0.1-0.1-0.2-0.1c-0.1-0.4-0.3-0.6-0.6-0.8c-0.9-0.5-1.9-1.1-2.6-1.9c-0.1-0.1-0.3-0.1-0.3-0.3c-0.3-1-1.3-1.4-1.8-2.3
		c-0.3-0.5-0.9-0.9-1.4-1.3c-0.3-0.3-0.8-0.5-1.2-0.7c-0.1,0-0.2-0.1-0.2-0.2c-0.2-1.1-1.1-1.5-1.9-2.1c-0.8-0.6-1.5-1.3-2.3-1.9
		c-0.4-0.3-0.8-0.5-1.2-0.7c-1-0.8-1.1-1.1-0.8-2.5c0.2,0.1,0.4,0.2,0.6,0.3c0.9,0.6,1.8,1.2,2.4,2.1c0.1,0.2,0.5,0.3,0.8,0.5
		c0,0.1,0,0.3,0.1,0.5c0.1,0.1,0.2,0.1,0.2,0.1c0.6-0.3,1,0.1,1.3,0.6c0.3,0.4,0.7,0.8,1,1.2c0.1,0.1,0.4,0.2,0.6,0.3
		c0.1,0.1,0.3,0,0.4,0.1c0.3,1,1.6,0.8,1.9,1.8c0.1,0.2,0.4,0.2,0.6,0.3c0.2,0.1,0.6,0.2,0.7,0.4c0.5,0.6,1.3,0.9,2,1.3
		c0.6,0.4,1.2,0.8,1.8,1.3c1.2,0.9,2.3,1.9,3.5,2.9c0.7,0.6,1.5,1.1,2.3,1.6c1.1,0.8,2.1,1.7,3.1,2.5c0.4,0.4,0.8,0.7,1.4,1
		c0.5,0.2,0.8,0.6,1.3,0.9c0.7,0.5,1.3,1,2,1.5C236.6,59.3,237.2,59.8,238,60.5z"/>
	<path class="st0" d="M239.3,30.7c0.3,0,0.6,0.1,0.9,0.1c0,0.3,0.1,0.6,0.1,1c0.3-0.1,0.5-0.2,0.7-0.3c0.2,0.3,0.3,0.5,0.6,0.9
		c1-0.6,1.5,0.3,2.2,0.7c0.5,0.3,0.8,0.7,1.3,0.8c1.3,0.4,2.6,0.9,3.7,1.7c0.3,0.2,0.7,0.3,1.2,0.5c-0.3,0.1-0.6,0.2-0.9,0.2
		c0.1,0.2,0.2,0.4,0.4,0.7c0.2-0.1,0.3-0.2,0.6-0.4c0.3,0.1,0.6,0.7,1.1,0.1c0,0.3,0.1,0.5,0.1,0.7c0.4,0,0.7,0,1.3-0.1
		c-0.1,0.3-0.2,0.5-0.3,0.7c0.2,0.2,0.4,0.4,0.7,0.6c0.4-0.4,0.8,0,1.2,0.1c0.9,0.2,0.9,0.2,1,1.1c0.4,0,0.8-0.1,1.2,0
		c1.3,0.2,2.5,0.8,3.5,1.6c0.5,0.4,0.9,0.9,1.7,0.8c0.2,1.1,1.4,1.7,1.4,2.9c0,0.1-0.1,0.3-0.2,0.6c-0.3-0.6-0.6-0.9-1.1-0.7
		c-0.4,0.1-0.6-0.2-0.6-0.6c-0.1-0.5-0.2-1-0.4-1.5c0,0.2,0,0.4-0.1,0.5c-0.2,0.4-0.6,0.5-0.9,0.4c-0.4-0.2-0.4-0.6-0.1-0.8
		s0.6-0.3,0.3-0.6c-0.3-0.4-0.5-0.1-0.8,0.1c-0.2,0.2-0.6,0.2-0.7,0.3c-0.8-0.5-1.6-1-2.4-1.3c-0.7-0.3-0.7-0.2-1.1-0.9
		c-1.2,0.2-2.2,0-2.6-1.5c-0.4,0-0.8,0-1.3-0.1c0-0.2-0.1-0.5-0.1-0.7c-0.6,0-1.2,0.2-1.4-0.7c-1,0.6-1.7-0.1-2.4-0.6
		c-0.3-0.2-0.5-0.5-0.9-0.5c-0.2,0-0.5-0.2-0.8-0.4c-0.2-0.2-0.4-0.4-0.7-0.5c-1.6-0.7-1.6-0.7-2.4-2.2c-0.3,0-0.6,0.1-0.9,0.1
		c-0.3,0-0.6-0.1-1-0.2c0.1-0.3,0.2-0.5,0.2-0.7c-0.6,0.7-1.3,1.1-2.2,1.1c-0.2-0.3-0.5-0.6-0.8-0.9c0.1-0.2,0.1-0.5,0.2-0.8
		c-0.8,0.3-1.3,0-1.7-0.6c-0.1-0.1-0.2-0.2-0.4-0.3c-0.7-0.3-1.4-0.7-2.2-1c-0.6-0.3-1.1-0.7-0.9-1.5c-0.8,0-1.3,1.2-2.2,0.6
		c0.1-0.2,0.2-0.4,0.3-0.5c-0.1-0.1-0.1-0.1-0.2-0.1c-0.7,0-1.4,0.2-1.8-0.6c0-0.1-0.2-0.1-0.4-0.1c-1.8-0.2-3.3-0.9-4.7-2.2
		c-0.3-0.3-0.8-0.9-1.6-0.6c-0.2,0.1-0.7-0.4-1.1-0.7c0.8-0.1,1.6-0.4,2.3-0.2c0.7,0.2,1.6-0.2,2.2,0.6c-0.1,0.2-0.2,0.4-0.3,0.7
		c0.3-0.1,0.6-0.1,0.9-0.1c0.6-0.1,1.1,0,1.6,0.5c0.4,0.4,0.8,0.7,1.4,0.7c1.1,0.1,2,0.7,2.8,1.4c0.4,0,0.7-0.6,1-0.2
		c0.2,0.3,0.4,0.6,0.6,0.9c0.9,0.2,1.2,0.1,1.7-0.6c-0.6-0.2-0.9-0.6-0.8-1.2c0.3-0.2,0.7-0.5,1.1-0.7c0.3,0.5,0.3,0.5,0.2,1.1
		c0.2,0,0.4,0,0.7,0c-0.1,0.4-0.3,0.7-0.4,0.9c-0.1,0.3-0.3,0.6,0.1,1c0.2-0.3,0.3-0.5,0.5-0.7c0.1,0,0.2,0.1,0.2,0.2
		c0.3,0.3,0.5,0.7,0.8,1c0.3,0.4,0.7,0.7,1.2,0.8C238.9,30.4,239.1,30.6,239.3,30.7c-0.4,0.3-1,0.2-1.2,0.9
		C239.1,31.9,239.2,31.7,239.3,30.7z M254.6,39.5c-0.1,0-0.2,0.1-0.3,0.1c0.1,0.2,0.1,0.3,0.2,0.5c0.1,0,0.1,0,0.2-0.1
		C254.7,39.9,254.7,39.7,254.6,39.5z M247.9,36.7c-0.2-0.1-0.3-0.1-0.4-0.1c-0.1,0-0.2,0.1-0.2,0.1c0,0.1,0,0.2,0.1,0.2
		C247.4,36.8,247.5,36.8,247.9,36.7z M229.6,27.9c0,0.1-0.1,0.2-0.1,0.2c0.1,0.1,0.2,0.1,0.2,0.1s0.1-0.1,0.1-0.2
		C229.8,28,229.7,28,229.6,27.9z"/>
	<path class="st0" d="M242.2,55.8c-0.7,0.6-1.3,0.4-1.8,0.1c-0.9-0.4-1.8-0.9-2.7-1.3c-0.4-0.2-0.8-0.3-1.3-0.4c1,1.1,2.1,2,3.3,3
		c1.1,0.9,2.2,2,3.4,3c-0.8,0.4-1.6,0.3-2.4,0.2c-0.1,0-0.3-0.2-0.4-0.3c-0.9-0.7-1.7-1.5-2.6-2.2c-0.6-0.5-1.3-1.1-1.8-1.8
		c-0.4-0.6-1.2-1-2.1-1.1c-0.7-1.2-1.6-2.1-2.9-2.7c-0.6-0.3-1-0.8-1.5-1.2c-0.4-0.3-0.7-0.7-1.1-0.8c-1.1-0.3-1.7-1.2-2.5-1.9
		c-0.2-0.2-0.4-0.4-0.7-0.5c-0.6-0.1-1-0.5-1.2-1c-0.4-1.2-1.4-1.5-2.3-1.8c-0.8-0.2-1.5-0.5-2-1.2c-0.3-0.4-0.8-0.6-1.2-0.9
		c-0.2-0.2-0.4-0.3-0.6-0.5c-0.5-0.4-1-1-1.7-1.2c-0.2-0.1-0.4-0.3-0.5-0.5c-0.2-0.5,0-0.8,0.5-0.8c0.3,0,0.6,0,0.9,0.2
		c0.9,0.4,1.7,0.9,2.5,1.4c2.5,1.5,5,3.3,7.6,4.6c1,0.5,1.9,1.3,2.9,2c1.8,1.2,3.6,2.4,5.4,3.6c1.3,0.8,2.5,1.7,3.9,2.5
		c0.7,0.4,1.6,0.7,2.4,1.1C241.8,55.6,241.9,55.7,242.2,55.8z"/>
	<path class="st0" d="M231,67.4c-0.4-0.2-0.6-0.3-0.8-0.5c-0.5-0.8-1.4-1.7-2-2.2c-0.7-0.6-1.3-1.2-2-1.8c-0.6-0.5-1.2-0.8-1.8-1.2
		c-0.5-0.3-0.9-0.7-1.4-1.1c-0.4-0.3-0.8-0.7-1.2-1c-0.7-0.5-1.4-0.9-2.2-1.4c-0.1,0-0.1-0.1-0.2-0.1c-0.3-0.9-1.2-1-1.8-1.5
		c-1.1-0.9-2.4-1.7-3-3.2c-0.4-0.8-0.3-1,0.6-1.3c0.7-0.2,1.2,0,1.8,0.4c1.9,1.3,3.9,2.6,5.9,3.8c0.6,0.4,1.3,0.9,1.9,1.3
		c1.1,0.8,2.2,1.6,3.3,2.4c0.3,0.2,0.7,0.5,1,0.7c0.6,0.4,1.2,0.6,1.7,1.2c0.3,0.3,0.8,0.5,1.2,0.7c0.3,0.2,0.5,0.4,0.4,0.7
		C232,64.8,231.5,66,231,67.4z"/>
	<path class="st0" d="M229,72.8c-0.3-0.4-0.6-0.6-0.7-0.9c-0.2-0.3-0.4-0.5-0.7-0.6c-0.5-0.1-0.8-0.3-1.1-0.6
		c-0.7-0.8-1.6-1.4-2.6-1.8c-0.2,0-0.3-0.1-0.4-0.3c-0.9-1-2.1-1.5-3.1-2.3c-0.9-0.6-1.7-1.3-2.5-2c-0.7-0.5-1.5-1.1-2.2-1.5
		c-0.8-0.5-1.3-1.3-1.4-2.2c-0.1-0.7,0.1-0.9,0.8-1.1c0.9-0.2,1.6,0.1,2.3,0.6c1.1,0.8,2.3,1.6,3.4,2.5c0.4,0.3,0.7,0.5,1,0.8
		c0.2,0.1,0.3,0.3,0.5,0.4c1.4,0.3,2.3,1.4,3.6,1.9c0.2,0.1,0.3,0.3,0.4,0.4c1.1,1.1,2.3,1.9,3.6,2.7c0.3,0.2,0.5,0.4,0.4,0.8
		C229.9,70.7,229.6,71.7,229,72.8z"/>
	<path class="st0" d="M244.9,44.2c0.4,0,0.8-0.5,1,0c0.3,0.6-0.4,0.5-0.7,0.8c0,0.3,0,0.6,0,1c0.5,0,0.9-0.1,1.5-0.1
		c-0.1,0.3-0.2,0.6-0.2,0.7c0.4,0.3,0.8,0.5,1.2,0.7c-0.1,0.4-0.2,0.7-0.3,1.1c0.3,0.2,0.6,0.4,0.9,0.6c0.3,0.3,0.7,0.6,0.5,1.1
		c-0.1,0.4,0.1,0.7,0.4,0.8c0.9,0.4,1,1.3,1.4,2c0.1,0.2-0.1,0.6-0.1,1c0.3,0.2,0.6,0.4,1,0.6c-0.2,0.3-0.3,0.5-0.4,0.6
		c0.7,0.7,1.4,1.3,2.1,1.9c-0.2,0.2-0.3,0.3-0.6,0.5c0.7,0.4,1,0.9,1.1,1.7c0,0.4,0.1,1,0.8,1c0.1,0,0.2,0.3,0.3,0.5
		c0.1,0.3,0.1,0.6,0.2,0.9c0.1,0.5-0.2,0.7-0.5,0.9c-0.4,0.2-0.6-0.1-0.8-0.5c-0.4-0.9-0.9-1.8-1.3-2.8c-0.2,0-0.5,0-0.7,0.1
		c0-0.8,0-1.4,0-2.2c-0.3,0-0.7,0-1.1,0c-0.3-0.3-0.9-0.6-0.7-1.4c0-0.1,0-0.3-0.1-0.4c-0.7-0.4-0.6-1.1-0.9-1.7
		c-0.2-0.6-0.5-1.1-0.9-1.6c-0.5-0.6-1.2-1.2-1.1-2.2c0-0.3-0.5-0.6-0.8-0.9c-0.3-0.2-0.3-0.4-0.1-0.8c-1-0.1-1.1-1.2-1.8-1.6
		c-0.1-0.1-0.1-0.3-0.1-0.4c0.2-0.7-0.2-1.2-0.3-1.8c-0.1-0.3-0.4-0.6-0.6-0.9c-0.2-0.2-0.5-0.4-0.5-0.6c-0.1-1-0.9-1.5-1.3-2.3
		c-0.3-0.7-0.9-1.2-1.3-1.9c-0.3-0.5-0.3-0.5,0.3-0.8c0.3,0.2,0.5,0.5,0.8,0.7c0.6,0.3,0.6,0.6,0.2,1c0.7,0.2,1.3,0.4,1.8,0.9
		s0.7,1,1,1.6c0,0.1,0.1,0.2,0,0.3c-0.3,0.5,0,0.8,0.2,1.2C244.7,43.6,244.8,43.9,244.9,44.2z"/>
	<path class="st0" d="M241.8,83.1c-0.9-0.3-1.8-0.5-2.7-0.8c-0.4-0.1-0.8-0.3-1.1-0.4c-0.8-0.1-0.9-0.3-0.7-1
		c0.3-0.9,0.6-1.7,0.9-2.6c0.3-0.9,0.6-1.7,1.1-2.9c0.3,0.5,0.6,0.8,0.7,1.1c0.7,2,1.3,4.1,2,6.1C241.9,82.8,241.9,82.9,241.8,83.1z
		"/>
	<path class="st0" d="M242.7,86.8c-0.6,0.4-1.1,0.5-1.7,0.5c-1,0-1.9,0-2.9,0c-0.9,0-1.4-0.8-2.1-1.2c-0.1-0.1-0.1-0.3-0.1-0.5
		c0.2-1,0.4-2,1-3C238.8,83.9,240.7,85.3,242.7,86.8z"/>
	<path class="st0" d="M210.8,111.7c-0.5-0.1-0.8-0.2-1.2-0.3c-0.1,0.1-0.3,0.3-0.4,0.4c-1.6,0.1-3.1,0-4.7-0.3
		c-0.3-0.1-0.7-0.2-1-0.1c-0.8,0.3-1.3,0-1.9-0.4c-0.3-0.3-0.6-0.6-1.1-1c0.4-0.1,0.7-0.3,0.8-0.2c1.3,0.5,2.6,0.1,4,0.1
		c0.4,0,0.8,0,1.1,0.2c0.5,0.2,0.8,0.2,1.2-0.1c0.2,0.3,0.4,0.6,0.6,0.8c0.5-0.8,1.1-1,1.6-0.8C210.5,110,210.8,110.5,210.8,111.7z
		 M207.6,111.1c-0.1-0.1-0.2-0.2-0.3-0.2s-0.2,0.1-0.3,0.2c0.1,0.1,0.1,0.2,0.2,0.2C207.3,111.3,207.4,111.2,207.6,111.1z
		 M206.1,110.8c-0.1,0.1-0.2,0.2-0.2,0.3c0,0.1,0.1,0.2,0.2,0.2c0.1,0,0.2-0.1,0.2-0.2C206.3,111,206.2,110.9,206.1,110.8z"/>
	<path class="st0" d="M232.9,21.7c-0.1,0.5-0.2,0.8-0.4,1.2c0.3-0.2,0.5-0.3,0.6-0.3s0.4,0,0.4,0.1c0.1,0.1,0.1,0.3,0,0.4
		c-0.1,0.2-0.3,0.3-0.4,0.4c0.4,0.2,0.9,0.3,1.2,0.6c0.3,0.3,0.4,0.7,0.6,1.1c-0.2,0.3-0.5,0.6-0.8,1c-0.1-0.4-0.2-0.7-0.3-1
		c-0.2,0-0.5-0.1-0.8-0.1c0-0.1-0.1-0.3-0.1-0.4c0.1-0.6-0.1-1-0.5-1.3c-0.1-0.1-0.2-0.2-0.3-0.3c-0.5-0.6-0.4-1,0.4-1.3
		C232.5,21.8,232.6,21.8,232.9,21.7z"/>
	<path class="st0" d="M240.1,34.5c-0.1,0.4-0.2,0.8-0.3,1.1c0.4,0.1,0.8,0.2,1.3,0.2c0,0.1,0,0.2,0.1,0.2c-0.4,0.3-0.8,0.7-1.2,1
		c-0.6-0.2-0.5-0.6-0.5-1c-0.6-0.1-0.8-0.6-1-1.1c-0.2-0.4,0-0.7,0.5-0.7C239.2,34.4,239.6,34.4,240.1,34.5z"/>
	<path class="st0" d="M269.6,104.9c0.1,0,0.3,0,0.4,0.1c-0.4,0.8-0.9,1.1-1.6,0.9c-0.4-0.1-0.7-0.4-0.5-0.7c0.2-0.4,0.5-0.3,0.7-0.1
		C269,105.4,269.3,105.3,269.6,104.9L269.6,104.9z"/>
	<path class="st0" d="M266.9,105.5c-0.6,0.1-0.9,0.1-1.4,0.1c0-0.2,0-0.4,0-0.5C265.9,104.9,266.1,104.9,266.9,105.5z"/>
	<path class="st0" d="M254.5,124.9c-0.7,0.2-0.9-0.2-1.4-0.4C253.8,124.3,254.1,124.6,254.5,124.9z"/>
	<path class="st0" d="M216.2,119.1c0.3,0.1,0.6,0.2,1,0.3C216.6,119.6,216.6,119.6,216.2,119.1z"/>
	<path class="st0" d="M218.2,112.9c-0.2-0.1-0.4-0.3-0.7-0.4c0.6-0.4,0.7-0.1,0.9,0.2C218.3,112.7,218.2,112.8,218.2,112.9z"/>
	<path class="st0" d="M265.6,106.1c0.1,0,0.2-0.1,0.3,0c0.1,0,0.2,0.1,0.3,0.3c-0.2,0-0.4,0-0.6-0.1
		C265.6,106.3,265.6,106.2,265.6,106.1z"/>
	<path class="st0" d="M250.4,124.3c-0.1-0.1-0.2-0.1-0.2-0.2c0.1-0.1,0.1-0.1,0.2-0.1c0,0,0.1,0,0.2,0.1
		C250.5,124.1,250.4,124.2,250.4,124.3z"/>
	<path class="st0" d="M241.4,37.3c0.1,0.1,0.1,0.1,0.2,0.2l-0.1,0.1c-0.1,0-0.1-0.1-0.2-0.2C241.3,37.4,241.3,37.3,241.4,37.3z"/>
	<path class="st0" d="M261.3,125.6c-0.3,0.1-0.4,0.1-0.5,0.1s-0.1-0.1-0.2-0.2c0.1,0,0.2-0.1,0.2-0.1
		C261,125.4,261.1,125.5,261.3,125.6z"/>
	<path class="st0" d="M274.9,127.1c-0.1-0.1-0.1-0.1-0.1-0.2s0.1-0.1,0.2-0.2l0.1,0.1C275,126.9,274.9,127,274.9,127.1z"/>
	<path class="st0" d="M221.3,110.7c-0.2-1.1-1.1-1.2-1.9-1.4c-0.9-0.2-2-0.2-2.4-1.5c-0.2-0.6-0.8-1.1-1.2-1.6
		c-0.1-0.2-0.3-0.4-0.4-0.6c-0.2-0.2-0.4-0.5-0.6-0.7c-0.1-0.4-0.2-0.8-0.4-1.2c0.3-0.5,0.6-1.1,0.9-1.7c0.2,0.2,0.4,0.4,0.6,0.6
		c0.4,0.5,0.8,0.8,1.4,1c0.3,0.1,0.6,0.2,0.7,0.4c1,1.4,2.4,2.5,3.5,3.8c0.2,0.3,0.7,0.4,1.1,0.6c-0.1,0.1-0.2,0.2-0.3,0.3
		c-0.1,0.1-0.2,0.2-0.4,0.3c0.3,0.1,0.5,0.2,0.8,0.3c0,0.1-0.1,0.2-0.1,0.3c-0.2,0.1-0.5,0.2-0.6,0.2c-0.5-0.1-0.7,0-0.8,0.5
		C221.5,110.5,221.4,110.6,221.3,110.7z"/>
	<path class="st0" d="M215.8,76.7c0.3,0.1,0.4,0.1,0.5,0.2c0.3,0.2,0.6,0.4,1,0.6c-0.1,0.2-0.3,0.4-0.4,0.5
		c-0.8,1.2-0.6,1.7,0.4,2.8c0.4,0.5,0.9,1,1.4,1.5c-0.5,0.4-1.2,0.3-1.8,0.4c-0.2,0-0.3-0.2-0.5-0.3c-0.2-0.1-0.2-0.3-0.4-0.4
		c-0.8-0.5-0.9-1.3-0.7-2.2c0.1-0.7,0.2-1.3,0.3-2C215.6,77.4,215.7,77.1,215.8,76.7z"/>
	<path class="st0" d="M215.7,109c0.5,0.5,0.5,0.5-0.2,1.1C215.6,109.6,215.7,109.3,215.7,109L215.7,109z"/>
	<path class="st0" d="M240.1,110.2c0.3,0.1,0.6,0.2,1.1,0.4C240.6,110.7,240.6,110.7,240.1,110.2z"/>
	<path class="st0" d="M215.7,74.8c-0.1-0.1-0.3-0.2-0.3-0.3c0-0.1,0.2-0.3,0.2-0.3c0.1,0,0.2,0.2,0.4,0.2
		C215.9,74.5,215.8,74.6,215.7,74.8z"/>
	<path class="st0" d="M216.9,99.4c0,0.2,0.1,0.3,0.1,0.5c-0.1,0-0.1,0-0.2,0.1c-0.1-0.2-0.1-0.3-0.2-0.5
		C216.7,99.4,216.8,99.4,216.9,99.4z"/>
	<path class="st0" d="M219.6,76.7c0.1,0.1,0.2,0.2,0.2,0.3c0,0-0.1,0.2-0.2,0.2c-0.1,0-0.2-0.1-0.3-0.2
		C219.4,77,219.5,76.8,219.6,76.7z"/>
	<path class="st0" d="M216.7,109.6c0.1,0.1,0.1,0.2,0.2,0.2c-0.1,0.1-0.2,0.1-0.3,0.2c-0.1-0.1-0.1-0.1-0.1-0.2
		C216.5,109.7,216.7,109.6,216.7,109.6z"/>
	<path class="st0" d="M259.3,81c0.3,0.5,0.2,0.7-0.2,0.9c-0.5,0.1-0.7-0.2-0.7-0.7C258.7,81.1,259,81,259.3,81z"/>
	<path class="st0" d="M260.7,98.1c-0.1,0.1-0.1,0.2-0.2,0.2s-0.2-0.1-0.3-0.1c0.1-0.1,0.1-0.2,0.2-0.2
		C260.5,97.9,260.6,98,260.7,98.1z"/>
	<path class="st0" d="M257.1,65.2c-0.2-0.1-0.4-0.1-0.7-0.2C256.8,64.7,256.9,65,257.1,65.2L257.1,65.2z"/>
	<path class="st0" d="M255.8,107.4c-0.3-0.1-0.6-0.2-1.1-0.4c0.6-0.4,0.9-0.1,1.2,0C255.8,107.2,255.8,107.3,255.8,107.4z"/>
	<path class="st0" d="M245.2,107.8c0.2-0.4,0.2-0.4,0.9-0.2C245.6,107.7,245.4,107.7,245.2,107.8L245.2,107.8z"/>
	<path class="st0" d="M266.5,125c-0.1,0.1-0.2,0.2-0.2,0.2c-0.1,0-0.2-0.1-0.3-0.2c0.1,0,0.1-0.1,0.2-0.1
		C266.3,124.9,266.4,125,266.5,125z"/>
	<path class="st0" d="M239.3,30.7c0,1-0.2,1.2-1.2,0.9C238.3,31,238.9,31,239.3,30.7L239.3,30.7z"/>
	<path class="st0" d="M254.6,39.5c0,0.2,0.1,0.3,0.1,0.5c-0.1,0-0.1,0-0.2,0.1c-0.1-0.2-0.1-0.3-0.2-0.5
		C254.4,39.6,254.5,39.5,254.6,39.5z"/>
	<path class="st0" d="M247.9,36.7c-0.3,0.1-0.4,0.2-0.5,0.2c0-0.1-0.1-0.2-0.1-0.2s0.1-0.1,0.2-0.1
		C247.5,36.6,247.6,36.6,247.9,36.7z"/>
	<path class="st0" d="M229.6,27.9c0.1,0.1,0.2,0.1,0.3,0.2c0,0.1-0.1,0.2-0.1,0.2c-0.1,0-0.2-0.1-0.2-0.1
		C229.5,28.1,229.5,28,229.6,27.9z"/>
	<path class="st0" d="M207.6,111.1c-0.2,0.1-0.3,0.2-0.4,0.2c-0.1,0-0.1-0.1-0.2-0.2c0.1-0.1,0.2-0.2,0.3-0.2
		C207.4,110.9,207.5,111,207.6,111.1z"/>
	<path class="st0" d="M206.1,110.8c0.1,0.2,0.2,0.2,0.2,0.3c0,0.1-0.1,0.2-0.2,0.2c-0.1,0-0.2-0.1-0.2-0.2
		C205.9,111,206,110.9,206.1,110.8z"/>
</g>
</svg>
